<mxfile host="app.diagrams.net" modified="2021-04-20T07:44:17.529Z" agent="5.0 (Windows NT 10.0; Win64; x64) AppleWebKit/537.36 (KHTML, like Gecko) Chrome/71.0.3578.98 Safari/537.36" etag="q4bK9ATcgs8EJidCeYBF" version="14.6.3" type="github">
  <diagram id="C5RBs43oDa-KdzZeNtuy" name="Page-1">
    <mxGraphModel dx="2545" dy="2164" grid="1" gridSize="10" guides="1" tooltips="1" connect="1" arrows="1" fold="1" page="1" pageScale="1" pageWidth="827" pageHeight="1169" math="0" shadow="0">
      <root>
        <mxCell id="WIyWlLk6GJQsqaUBKTNV-0" />
        <mxCell id="WIyWlLk6GJQsqaUBKTNV-1" parent="WIyWlLk6GJQsqaUBKTNV-0" />
        <mxCell id="WIyWlLk6GJQsqaUBKTNV-4" value="否" style="rounded=0;html=1;jettySize=auto;orthogonalLoop=1;fontSize=11;endArrow=block;endFill=0;endSize=8;strokeWidth=1;shadow=0;labelBackgroundColor=none;edgeStyle=orthogonalEdgeStyle;strokeColor=#788AA3;fontColor=#46495D;" parent="WIyWlLk6GJQsqaUBKTNV-1" source="WIyWlLk6GJQsqaUBKTNV-6" edge="1">
          <mxGeometry y="20" relative="1" as="geometry">
            <mxPoint as="offset" />
            <mxPoint x="200" y="290" as="targetPoint" />
          </mxGeometry>
        </mxCell>
        <mxCell id="8hbioFjuzl5cuc7cHFdg-2" value="是" style="edgeStyle=orthogonalEdgeStyle;rounded=0;orthogonalLoop=1;jettySize=auto;html=1;exitX=1;exitY=0.5;exitDx=0;exitDy=0;strokeColor=#788AA3;fontColor=#46495D;" edge="1" parent="WIyWlLk6GJQsqaUBKTNV-1" source="WIyWlLk6GJQsqaUBKTNV-6" target="WIyWlLk6GJQsqaUBKTNV-7">
          <mxGeometry relative="1" as="geometry" />
        </mxCell>
        <mxCell id="WIyWlLk6GJQsqaUBKTNV-6" value="要写入的消息是否为空（&lt;span style=&quot;background-color: rgb(255 , 255 , 255) ; font-family: &amp;#34;consolas&amp;#34; ; font-size: 10.8pt&quot;&gt;records.sizeInBytes &amp;gt;&amp;nbsp;&lt;/span&gt;&lt;span style=&quot;font-family: &amp;#34;consolas&amp;#34; ; font-size: 10.8pt ; color: rgb(0 , 0 , 255)&quot;&gt;0&lt;/span&gt;）" style="rhombus;whiteSpace=wrap;html=1;shadow=0;fontFamily=Helvetica;fontSize=12;align=center;strokeWidth=1;spacing=6;spacingTop=-4;fillColor=#B2C9AB;strokeColor=#788AA3;fontColor=#46495D;" parent="WIyWlLk6GJQsqaUBKTNV-1" vertex="1">
          <mxGeometry x="75" y="-120" width="270" height="270" as="geometry" />
        </mxCell>
        <mxCell id="WIyWlLk6GJQsqaUBKTNV-7" value="什么都不做" style="rounded=1;whiteSpace=wrap;html=1;fontSize=12;glass=0;strokeWidth=1;shadow=0;fillColor=#B2C9AB;strokeColor=#788AA3;fontColor=#46495D;" parent="WIyWlLk6GJQsqaUBKTNV-1" vertex="1">
          <mxGeometry x="470" y="-5" width="120" height="40" as="geometry" />
        </mxCell>
        <mxCell id="8hbioFjuzl5cuc7cHFdg-7" style="edgeStyle=orthogonalEdgeStyle;rounded=0;orthogonalLoop=1;jettySize=auto;html=1;exitX=0.5;exitY=1;exitDx=0;exitDy=0;strokeColor=#788AA3;fontColor=#46495D;" edge="1" parent="WIyWlLk6GJQsqaUBKTNV-1" source="8hbioFjuzl5cuc7cHFdg-4" target="8hbioFjuzl5cuc7cHFdg-6">
          <mxGeometry relative="1" as="geometry" />
        </mxCell>
        <mxCell id="8hbioFjuzl5cuc7cHFdg-4" value="得到日字段的物理位置（如果物理位置为0 ,则&lt;span style=&quot;font-family: &amp;#34;consolas&amp;#34; ; font-size: 10.8pt ; color: rgb(102 , 14 , 122) ; font-style: italic&quot;&gt;rollingBasedTimestamp &lt;/span&gt;&lt;span style=&quot;background-color: rgb(255 , 255 , 255) ; font-family: &amp;#34;consolas&amp;#34; ; font-size: 10.8pt&quot;&gt;= &lt;/span&gt;&lt;span style=&quot;font-family: &amp;#34;consolas&amp;#34; ; font-size: 10.8pt ; font-style: italic&quot;&gt;Some&lt;/span&gt;&lt;span style=&quot;background-color: rgb(255 , 255 , 255) ; font-family: &amp;#34;consolas&amp;#34; ; font-size: 10.8pt&quot;&gt;(largestTimestamp)日志滚动时间戳就是当前日志所用最大时间）&lt;/span&gt;" style="rounded=1;whiteSpace=wrap;html=1;fontSize=12;glass=0;strokeWidth=1;shadow=0;fillColor=#B2C9AB;strokeColor=#788AA3;fontColor=#46495D;" vertex="1" parent="WIyWlLk6GJQsqaUBKTNV-1">
          <mxGeometry x="80" y="210" width="260" height="150" as="geometry" />
        </mxCell>
        <mxCell id="8hbioFjuzl5cuc7cHFdg-16" value="否" style="edgeStyle=orthogonalEdgeStyle;rounded=0;orthogonalLoop=1;jettySize=auto;html=1;exitX=1;exitY=0.5;exitDx=0;exitDy=0;strokeColor=#788AA3;fontColor=#46495D;" edge="1" parent="WIyWlLk6GJQsqaUBKTNV-1" source="8hbioFjuzl5cuc7cHFdg-6" target="8hbioFjuzl5cuc7cHFdg-10">
          <mxGeometry relative="1" as="geometry" />
        </mxCell>
        <mxCell id="8hbioFjuzl5cuc7cHFdg-21" value="是" style="edgeStyle=orthogonalEdgeStyle;rounded=0;orthogonalLoop=1;jettySize=auto;html=1;exitX=0.5;exitY=1;exitDx=0;exitDy=0;strokeColor=#788AA3;fontColor=#46495D;" edge="1" parent="WIyWlLk6GJQsqaUBKTNV-1" source="8hbioFjuzl5cuc7cHFdg-6" target="8hbioFjuzl5cuc7cHFdg-20">
          <mxGeometry relative="1" as="geometry" />
        </mxCell>
        <mxCell id="8hbioFjuzl5cuc7cHFdg-6" value="&lt;pre style=&quot;background-color: rgb(255 , 255 , 255) ; font-family: &amp;#34;consolas&amp;#34; ; font-size: 10.8pt&quot;&gt;&lt;span style=&quot;color: #808080 ; font-style: italic&quot;&gt;校验&lt;/span&gt;&lt;/pre&gt;&lt;pre style=&quot;background-color: rgb(255 , 255 , 255) ; font-family: &amp;#34;consolas&amp;#34; ; font-size: 10.8pt&quot;&gt;&lt;span style=&quot;color: #808080 ; font-style: italic&quot;&gt;0&amp;lt;largestOffset-baseoffset&amp;lt;INt.maxValue&lt;/span&gt;&lt;/pre&gt;" style="rhombus;whiteSpace=wrap;html=1;fillColor=#B2C9AB;strokeColor=#788AA3;fontColor=#46495D;" vertex="1" parent="WIyWlLk6GJQsqaUBKTNV-1">
          <mxGeometry x="22.5" y="440" width="375" height="270" as="geometry" />
        </mxCell>
        <mxCell id="8hbioFjuzl5cuc7cHFdg-10" value="&lt;pre style=&quot;background-color: rgb(255 , 255 , 255) ; font-family: &amp;#34;consolas&amp;#34; ; font-size: 10.8pt&quot;&gt;报错LogSegmentOffsetOverflowException&lt;/pre&gt;" style="rounded=1;whiteSpace=wrap;html=1;fillColor=#B2C9AB;strokeColor=#788AA3;fontColor=#46495D;" vertex="1" parent="WIyWlLk6GJQsqaUBKTNV-1">
          <mxGeometry x="480" y="547.5" width="310" height="55" as="geometry" />
        </mxCell>
        <mxCell id="8hbioFjuzl5cuc7cHFdg-17" value="是" style="edgeStyle=orthogonalEdgeStyle;rounded=0;orthogonalLoop=1;jettySize=auto;html=1;exitX=1;exitY=0.5;exitDx=0;exitDy=0;strokeColor=#788AA3;fontColor=#46495D;" edge="1" parent="WIyWlLk6GJQsqaUBKTNV-1" source="8hbioFjuzl5cuc7cHFdg-13" target="8hbioFjuzl5cuc7cHFdg-18">
          <mxGeometry relative="1" as="geometry">
            <mxPoint x="490" y="835" as="targetPoint" />
          </mxGeometry>
        </mxCell>
        <mxCell id="8hbioFjuzl5cuc7cHFdg-19" value="否" style="edgeStyle=orthogonalEdgeStyle;rounded=0;orthogonalLoop=1;jettySize=auto;html=1;exitX=0.5;exitY=1;exitDx=0;exitDy=0;entryX=0.5;entryY=0;entryDx=0;entryDy=0;strokeColor=#788AA3;fontColor=#46495D;" edge="1" parent="WIyWlLk6GJQsqaUBKTNV-1" source="8hbioFjuzl5cuc7cHFdg-13">
          <mxGeometry relative="1" as="geometry">
            <mxPoint x="210" y="1120" as="targetPoint" />
          </mxGeometry>
        </mxCell>
        <mxCell id="8hbioFjuzl5cuc7cHFdg-13" value="&lt;pre style=&quot;background-color: rgb(255 , 255 , 255) ; font-family: &amp;#34;consolas&amp;#34; ; font-size: 10.8pt&quot;&gt;此次append日志最大时间搓是否大于内存中的&lt;/pre&gt;&lt;pre style=&quot;background-color: rgb(255 , 255 , 255) ; font-family: &amp;#34;consolas&amp;#34; ; font-size: 10.8pt&quot;&gt;largestTimestamp &amp;gt; maxTimestampSoFar&lt;/pre&gt;" style="rhombus;whiteSpace=wrap;html=1;fillColor=#B2C9AB;strokeColor=#788AA3;fontColor=#46495D;" vertex="1" parent="WIyWlLk6GJQsqaUBKTNV-1">
          <mxGeometry x="22.5" y="850" width="375" height="190" as="geometry" />
        </mxCell>
        <mxCell id="8hbioFjuzl5cuc7cHFdg-23" style="edgeStyle=orthogonalEdgeStyle;rounded=0;orthogonalLoop=1;jettySize=auto;html=1;exitX=0.5;exitY=1;exitDx=0;exitDy=0;entryX=1;entryY=0.5;entryDx=0;entryDy=0;strokeColor=#788AA3;fontColor=#46495D;" edge="1" parent="WIyWlLk6GJQsqaUBKTNV-1" source="8hbioFjuzl5cuc7cHFdg-18" target="8hbioFjuzl5cuc7cHFdg-24">
          <mxGeometry relative="1" as="geometry">
            <mxPoint x="270" y="1150" as="targetPoint" />
          </mxGeometry>
        </mxCell>
        <mxCell id="8hbioFjuzl5cuc7cHFdg-18" value="更新更新最大时间搓和&lt;br&gt;最大时间戳对应的位移" style="rounded=1;whiteSpace=wrap;html=1;fillColor=#B2C9AB;strokeColor=#788AA3;fontColor=#46495D;" vertex="1" parent="WIyWlLk6GJQsqaUBKTNV-1">
          <mxGeometry x="570" y="905" width="290" height="80" as="geometry" />
        </mxCell>
        <mxCell id="8hbioFjuzl5cuc7cHFdg-22" style="edgeStyle=orthogonalEdgeStyle;rounded=0;orthogonalLoop=1;jettySize=auto;html=1;exitX=0.5;exitY=1;exitDx=0;exitDy=0;strokeColor=#788AA3;fontColor=#46495D;" edge="1" parent="WIyWlLk6GJQsqaUBKTNV-1" source="8hbioFjuzl5cuc7cHFdg-20" target="8hbioFjuzl5cuc7cHFdg-13">
          <mxGeometry relative="1" as="geometry" />
        </mxCell>
        <mxCell id="8hbioFjuzl5cuc7cHFdg-20" value="写消息入内存" style="rounded=1;whiteSpace=wrap;html=1;fillColor=#B2C9AB;strokeColor=#788AA3;fontColor=#46495D;" vertex="1" parent="WIyWlLk6GJQsqaUBKTNV-1">
          <mxGeometry x="150" y="750" width="120" height="60" as="geometry" />
        </mxCell>
        <mxCell id="8hbioFjuzl5cuc7cHFdg-27" value="是" style="edgeStyle=orthogonalEdgeStyle;rounded=0;orthogonalLoop=1;jettySize=auto;html=1;exitX=0.5;exitY=1;exitDx=0;exitDy=0;strokeColor=#788AA3;fontColor=#46495D;" edge="1" parent="WIyWlLk6GJQsqaUBKTNV-1" source="8hbioFjuzl5cuc7cHFdg-24" target="8hbioFjuzl5cuc7cHFdg-25">
          <mxGeometry relative="1" as="geometry" />
        </mxCell>
        <mxCell id="8hbioFjuzl5cuc7cHFdg-31" style="edgeStyle=orthogonalEdgeStyle;rounded=0;orthogonalLoop=1;jettySize=auto;html=1;exitX=1;exitY=1;exitDx=0;exitDy=0;entryX=0.5;entryY=0;entryDx=0;entryDy=0;strokeColor=#788AA3;fontColor=#46495D;" edge="1" parent="WIyWlLk6GJQsqaUBKTNV-1" source="8hbioFjuzl5cuc7cHFdg-24" target="8hbioFjuzl5cuc7cHFdg-26">
          <mxGeometry relative="1" as="geometry" />
        </mxCell>
        <mxCell id="8hbioFjuzl5cuc7cHFdg-32" value="否" style="edgeLabel;html=1;align=center;verticalAlign=middle;resizable=0;points=[];fontColor=#46495D;" vertex="1" connectable="0" parent="8hbioFjuzl5cuc7cHFdg-31">
          <mxGeometry x="-0.2257" relative="1" as="geometry">
            <mxPoint y="1" as="offset" />
          </mxGeometry>
        </mxCell>
        <mxCell id="8hbioFjuzl5cuc7cHFdg-24" value="识符需要生成一个新的索引文件" style="rhombus;whiteSpace=wrap;html=1;fillColor=#B2C9AB;strokeColor=#788AA3;fontColor=#46495D;" vertex="1" parent="WIyWlLk6GJQsqaUBKTNV-1">
          <mxGeometry x="125" y="1120" width="170" height="130" as="geometry" />
        </mxCell>
        <mxCell id="8hbioFjuzl5cuc7cHFdg-33" style="edgeStyle=orthogonalEdgeStyle;rounded=0;orthogonalLoop=1;jettySize=auto;html=1;strokeColor=#788AA3;fontColor=#46495D;" edge="1" parent="WIyWlLk6GJQsqaUBKTNV-1" source="8hbioFjuzl5cuc7cHFdg-25" target="8hbioFjuzl5cuc7cHFdg-26">
          <mxGeometry relative="1" as="geometry" />
        </mxCell>
        <mxCell id="8hbioFjuzl5cuc7cHFdg-25" value="记录&amp;nbsp; 最大位移值和物理位置信息&lt;br&gt;记录 最大时间戳和最大时间戳对应的位移&lt;br&gt;&lt;br&gt;&lt;pre style=&quot;font-weight: 700 ; text-align: left ; background-color: rgb(255 , 255 , 255) ; font-family: &amp;#34;consolas&amp;#34; ; font-size: 10.8pt&quot;&gt;&lt;span style=&quot;color: rgb(102 , 14 , 122) ; font-style: italic&quot;&gt;bytesSinceLastIndexEntry=0&lt;/span&gt;&lt;/pre&gt;" style="rounded=1;whiteSpace=wrap;html=1;fillColor=#B2C9AB;strokeColor=#788AA3;fontColor=#46495D;" vertex="1" parent="WIyWlLk6GJQsqaUBKTNV-1">
          <mxGeometry x="110" y="1310" width="200" height="120" as="geometry" />
        </mxCell>
        <mxCell id="8hbioFjuzl5cuc7cHFdg-26" value="结束" style="rounded=1;whiteSpace=wrap;html=1;fillColor=#B2C9AB;strokeColor=#788AA3;fontColor=#46495D;" vertex="1" parent="WIyWlLk6GJQsqaUBKTNV-1">
          <mxGeometry x="470" y="1340" width="120" height="60" as="geometry" />
        </mxCell>
        <mxCell id="8hbioFjuzl5cuc7cHFdg-30" value="" style="edgeStyle=orthogonalEdgeStyle;rounded=0;orthogonalLoop=1;jettySize=auto;html=1;strokeColor=#788AA3;fontColor=#46495D;" edge="1" parent="WIyWlLk6GJQsqaUBKTNV-1" source="8hbioFjuzl5cuc7cHFdg-29" target="8hbioFjuzl5cuc7cHFdg-24">
          <mxGeometry relative="1" as="geometry" />
        </mxCell>
        <mxCell id="8hbioFjuzl5cuc7cHFdg-29" value="&lt;h1&gt;&lt;pre style=&quot;background-color: rgb(255 , 255 , 255) ; font-family: &amp;#34;consolas&amp;#34; ; font-size: 10.8pt&quot;&gt;&lt;span style=&quot;color: #660e7a ; font-style: italic&quot;&gt;bytesSinceLastIndexEntry &lt;/span&gt;&amp;gt; indexIntervalBytes&lt;/pre&gt;&lt;pre style=&quot;background-color: rgb(255 , 255 , 255) ; font-family: &amp;#34;consolas&amp;#34; ; font-size: 10.8pt&quot;&gt;&lt;pre style=&quot;font-family: &amp;#34;consolas&amp;#34; ; font-size: 10.8pt&quot;&gt;indexIntervalBytes =4kb &lt;/pre&gt;&lt;/pre&gt;&lt;/h1&gt;" style="text;html=1;strokeColor=none;fillColor=none;spacing=5;spacingTop=-20;whiteSpace=wrap;overflow=hidden;rounded=0;fontColor=#46495D;" vertex="1" parent="WIyWlLk6GJQsqaUBKTNV-1">
          <mxGeometry x="-340" y="1147.5" width="390" height="75" as="geometry" />
        </mxCell>
      </root>
    </mxGraphModel>
  </diagram>
</mxfile>
